# xmcd
#
# Track frame offsets: 
#        150
#        15590
#        40525
#        52075
#        71755
#        84117
#        101727
#        112187
#        130660
#        142382
#        162680
#        183412
#        205815
#        222872
#        238132
#        250097
#
# Disc length: 3504 seconds
#
# Revision: 4
# Processed by: cddbd v1.5.2PL0 Copyright (c) Steve Scherf et al.
# Submitted via: ExactAudioCopy v0.99pb4
#
DISCID=ec0dae10
DTITLE=Floyd Dixon - Wake Up And Live!
DYEAR=1996
DGENRE=Blues
TTITLE0=Hey, Bartender
TTITLE1=My Song Is Don't Worry
TTITLE2=Floyd Dixon - Port Barlow - You Know That'll Get It
TTITLE3=A Long Time Ago
TTITLE4=A Dream
TTITLE5=You're The Only One For Me
TTITLE6=450 Pound Woman
TTITLE7=Mean And Jealous Man
TTITLE8=I Wanna Rock Now
TTITLE9=Don't Send Me No Flowers In The Graveyard
TTITLE10=Wake Up And Live
TTITLE11=Livin' A Lie (Weak For A Woman)
TTITLE12=Rockin' At Home
TTITLE13=Got The Blues So Bad
TTITLE14=Skeet's California Sunshine
TTITLE15=Floyd Dixon - Port Barlow - Gettin' Ready
EXTD=
EXTT0=
EXTT1=
EXTT2=
EXTT3=
EXTT4=
EXTT5=
EXTT6=
EXTT7=
EXTT8=
EXTT9=
EXTT10=
EXTT11=
EXTT12=
EXTT13=
EXTT14=
EXTT15=
PLAYORDER=
